<svg xmlns="http://www.w3.org/2000/svg" version="1.1" xmlns:xlink="http://www.w3.org/1999/xlink" xmlns:svgjs="http://svgjs.dev/svgjs" viewBox="0 0 6.068242503858493 5.304770026079356"><g transform="matrix(1,0,0,1,3.0311745477935577,4.419449921358138)"><g><path d=" M -2.4608433567809054 -1.8314960205137656 L -1.7693099294520398 -1.8060889567953287 L -1.7726510317618343 -1.715150312450059 L -2.2883031249723755 -1.7340954640088933 L -1.7810955760613147 -1.4853053871817945 L -1.7834453623011701 -1.4213485384114948 L -2.3085780409832255 -1.2094861543500264 L -1.7919266220106482 -1.1905042873811942 L -1.7952677243204427 -1.0995656430359244 L -2.486801151649308 -1.1249727067543613 L -2.4832030414695296 -1.2229066314338826 L -1.9021895606255543 -1.4577328119963735 L -2.464404751550686 -1.7345614215962801 L -2.4608433567809054 -1.8314960205137656 M -1.9773121165346723 -2.6463774466599563 L -1.4870429327527996 -2.4015507172494273 L -1.5276984662863 -2.320137403884189 L -1.600165261699314 -2.356325296370052 Q -1.5742057530238305 -2.314300257294193 -1.5739559667076182 -2.2621999923544034 Q -1.5737061803914059 -2.2100997274146144 -1.5987249702581752 -2.15999922688216 Q -1.6273178729630544 -2.1027415119879267 -1.6738111148793986 -2.068953519207824 Q -1.7203043567957428 -2.0351655264277206 -1.7809004430330602 -2.0324517960211383 Q -1.8414965292703773 -2.0297380656145556 -1.9094900657072795 -2.0636921375766 L -2.1966732919736685 -2.2071034152057605 L -2.1564645225449315 -2.287622076775776 L -1.8800171178212115 -2.14957196840378 Q -1.8075503224081977 -2.1133840759179177 -1.7503156410207101 -2.130630560964813 Q -1.6930809596332226 -2.1478770460117085 -1.661360708194997 -2.2113973234724984 Q -1.628746928547244 -2.2767069045237336 -1.6502421669321747 -2.3343866646374423 Q -1.6717374053171057 -2.3920664247511514 -1.7486774597062316 -2.4304881377608325 L -2.0179676500681727 -2.564964133294718 L -1.9773121165346723 -2.6463774466599563 M -1.4064597125380007 -3.192733540955576 Q -1.3198715257585125 -3.190138177736206 -1.2427346104127255 -3.106198340406504 L -1.0241800169329953 -2.8683688013056807 L -1.0904483095617077 -2.8074712365590067 L -1.300206588133585 -3.0357286889467936 Q -1.3556910360138879 -3.0961064666751756 -1.4153137478389715 -3.100393917505569 Q -1.474936459664055 -3.104681368335961 -1.5272147794044837 -3.0566399561469186 Q -1.5802294135074535 -3.0079219043495793 -1.5810739915421195 -2.946030574682627 Q -1.5819185695767857 -2.884139245015675 -1.5237275632632972 -2.8208162098371274 L -1.3187057619494946 -2.5977129579871296 L -1.3857103689407482 -2.536138753632159 L -1.7565088742871633 -2.939639024304763 L -1.6895042672959097 -3.0012132286597333 L -1.6367263778487922 -2.943780708381516 Q -1.6452647536086262 -2.992975181032251 -1.626588846741275 -3.0413741531564806 Q -1.6079129398739236 -3.0897731252807112 -1.5666793355716138 -3.1276649433453083 Q -1.493047899317489 -3.1953289041749464 -1.4064597125380007 -3.192733540955576 M -1.1838324809654297 -3.519639119056823 Q -1.2081797781947352 -3.527069402875618 -1.2203976212134369 -3.5500198780770242 Q -1.2326154642321385 -3.5729703532784307 -1.2251851804133431 -3.597317650507736 Q -1.2177548965945477 -3.6216649477370417 -1.1948044213931417 -3.6338827907557434 Q -1.1727366567764048 -3.645630716735264 -1.148830714839434 -3.6379654743968786 Q -1.1249247729024634 -3.6303002320584925 -1.1127069298837615 -3.6073497568570865 Q -1.1004890868650599 -3.5843992816556804 -1.1074780153915205 -3.5602869429459654 Q -1.1144669439179813 -3.5361746042362503 -1.136534708534718 -3.524426678256729 Q -1.1594851837361242 -3.5122088352380274 -1.1838324809654297 -3.519639119056823 M -1.0558728263221668 -3.466541785945103 L -0.7983582888510689 -2.9828163855462337 L -0.8786849520559906 -2.940053934980778 L -1.1361994895270886 -3.4237793353796473 L -1.0558728263221668 -3.466541785945103 M -0.38756042366875815 -3.548890648574541 L -0.36775387878077564 -3.4744816385045207 L -0.7533278400526974 -3.371847724084975 L -0.7731343849406799 -3.446256734154995 L -0.38756042366875815 -3.548890648574541 M -0.07134794724529415 -3.6047924759753776 Q -0.03298347918244199 -3.6657549036686246 0.02981955820213744 -3.6964310914251097 Q 0.09262259558671687 -3.7271072791815945 0.1704310037527338 -3.7216436156972184 Q 0.2711829168907814 -3.714568871954629 0.3330897274566747 -3.661101154539738 Q 0.3949965380225679 -3.6076334371248473 0.40985086941161436 -3.5193761493861886 L 0.31209158735687503 -3.526240752225533 Q 0.30162832402219014 -3.5770985944958165 0.2632591664622315 -3.6088642638282744 Q 0.22489000890227284 -3.640629933160733 0.16503738723610595 -3.6448327512256378 Q 0.08722897907008903 -3.650296414710014 0.03559936896261537 -3.6002900815096055 Q -0.016030241144858265 -3.550283748309197 -0.0228948439842028 -3.452524466254458 Q -0.029829493791295764 -3.3537676405052825 0.014270067283223414 -3.2965380265538085 Q 0.058369628357742565 -3.2393084126023344 0.13617803652375948 -3.2338447491179583 Q 0.19603065818992638 -3.2296419310530533 0.2378937210643266 -3.254771275787328 Q 0.27975678393872677 -3.2799006205216026 0.29836238167818596 -3.3307221881160545 L 0.3961216637329253 -3.32385758527671 Q 0.368291757164464 -3.2416049482345413 0.29891650146038545 -3.195852091536913 Q 0.22954124575630702 -3.1500992348392844 0.13078442000713164 -3.1570338846463772 Q 0.052976011841114695 -3.162497548130754 -0.004923737801075773 -3.201649418984797 Q -0.06282348744326621 -3.24080128983884 -0.09225696711819564 -3.3070256831861973 Q -0.12169044679312506 -3.3732500765335547 -0.11566640756676148 -3.4590388342550606 Q -0.10971241530814632 -3.54383004828213 -0.07134794724529415 -3.6047924759753776 M 0.6158780245907518 -3.094854147583115 Q 0.573387162705283 -3.152523694626854 0.5676626762357867 -3.225924854390583 Q 0.5619381897662904 -3.2993260141543126 0.5970094013737142 -3.3767534648187074 Q 0.6316680104916388 -3.4532700042988154 0.6915291292908063 -3.4969637848186097 Q 0.7513902480899739 -3.540657565338404 0.823012438587774 -3.546090044357862 Q 0.8946346290855739 -3.5515225233773196 0.9656857014599598 -3.51933952919639 Q 1.0367367738343458 -3.4871565350154596 1.0798893925567077 -3.429736142319115 Q 1.1230420112790696 -3.37231574962277 1.1298837101776025 -3.298957442961685 Q 1.1367254090761352 -3.2255991363005996 1.1016541974687115 -3.1481716856362043 Q 1.0665829858612876 -3.0707442349718095 1.0058109558778332 -3.0274630569415146 Q 0.9450389258943785 -2.9841818789112198 0.8722995229675419 -2.978706546789117 Q 0.7995601200407054 -2.973231214667015 0.7285090476663195 -3.0054142088479447 Q 0.6583688864762206 -3.037184600539376 0.6158780245907518 -3.094854147583115 M 0.854810933039131 -3.0612786317955885 Q 0.9034699712219514 -3.0644876819857276 0.9465888321225155 -3.0954556304912035 Q 0.9897076930230798 -3.126423578996679 1.0169394573300206 -3.186543717159621 Q 1.0441712216369614 -3.246663855322563 1.039467245362458 -3.2992934345267417 Q 1.034763269087955 -3.35192301373092 1.0057885553616308 -3.38974781993634 Q 0.9768138416353066 -3.42757262614176 0.9321791936052437 -3.4477901481272157 Q 0.8866336343908938 -3.468420272602171 0.8395472642292535 -3.4650477742699266 Q 0.7924608940676132 -3.4616752759376817 0.7507083999434795 -3.430088423697957 Q 0.7089559058193458 -3.398501571458233 0.681724141512405 -3.3383814332952912 Q 0.6540797747159651 -3.277350383948062 0.6574173842140378 -3.225339708478132 Q 0.6607549937121105 -3.1733290330082022 0.6888187962541477 -3.1359168292922814 Q 0.7168825987961849 -3.0985046255763606 0.7615172468262478 -3.0782871035909047 Q 0.8061518948563107 -3.058069581605449 0.854810933039131 -3.0612786317955885 M 1.750882323538293 -2.861102010488595 Q 1.7515641771760828 -2.7744776197223873 1.6706022623417265 -2.6942207300097003 L 1.44121017031105 -2.466826209157087 L 1.3778494679062971 -2.5307435103421048 L 1.5980090608769153 -2.7489859297362544 Q 1.6562448241788208 -2.8067145697050293 1.6582738664338588 -2.8664567908516125 Q 1.6603029086888967 -2.9261990119981958 1.6103183545695916 -2.9766226607108215 Q 1.5596297926457892 -3.027756501658836 1.4977508103621466 -3.026259320460496 Q 1.4358718280785043 -3.0247621392621555 1.3747952958350425 -2.9642174680753914 L 1.159607048512148 -2.7509031033127234 L 1.0955423383028977 -2.8155305967331303 L 1.4847276832961196 -3.2013268735976266 L 1.5487923935053698 -3.136699380177219 L 1.4933973991450207 -3.0817867714264335 Q 1.5422336837527884 -3.0921799088598125 1.59130446807586 -3.075348149417657 Q 1.6403752523989312 -3.058516389975501 1.6797996894507776 -3.018745624793712 Q 1.7502004699005032 -2.9477264012548026 1.750882323538293 -2.861102010488595 M 1.5726997821475728 -2.2607441959293237 Q 1.570329819422567 -2.315119128358542 1.5923977718100244 -2.3579706799923503 Q 1.614465724197482 -2.400822231626158 1.6581915891964623 -2.4252568122464786 L 1.6990492356634985 -2.3406007272603735 Q 1.6638633963170923 -2.3191774523125765 1.6554435090136246 -2.2768058167789214 Q 1.6470236217101566 -2.234434181245266 1.6713643472649866 -2.1840007689131187 Q 1.6939664495659004 -2.1371697431761243 1.7277198468924058 -2.120148927422493 Q 1.7614732442189112 -2.103128111668862 1.7929941269265035 -2.1183410651406307 Q 1.8254156062828844 -2.1339886744258787 1.827267061605349 -2.1704142439229903 Q 1.8291185169278137 -2.206839813420102 1.8153067204541153 -2.2745689377180667 Q 1.8032022622125035 -2.336459826309822 1.8013278580985657 -2.3783046182105787 Q 1.7994534539846276 -2.420149410111336 1.8167698101995737 -2.4590421318910867 Q 1.8340861664145198 -2.4979348536708375 1.8818177888003025 -2.5209716117852303 Q 1.9196428480494134 -2.5392271559513526 1.9620301260939836 -2.5319251932034126 Q 2.004417404138554 -2.5246232304554725 2.042873802858754 -2.49210622878753 Q 2.0813302015789543 -2.4595892271195874 2.1069748945742215 -2.4064540248410746 Q 2.1465285736008206 -2.3244997298013343 2.1294418533113864 -2.2540721500491476 Q 2.112355133021952 -2.183644570296961 2.0420460243728003 -2.145269718623479 L 2.0024923453462016 -2.2272240136632186 Q 2.0399140338036634 -2.2486160035891856 2.0496378885475686 -2.2882858491764755 Q 2.0593617432914737 -2.3279556947637654 2.036324985177081 -2.3756873171495485 Q 2.0150268503166044 -2.4198165529401776 1.983509302101155 -2.4368060836719785 Q 1.9519917538857054 -2.45379561440378 1.9213714678269014 -2.43901731674549 Q 1.897055358309616 -2.427281609781554 1.888901393691704 -2.4039146916918734 Q 1.8807474290737924 -2.380547773602193 1.8828095433187109 -2.3521180763677707 Q 1.8848716575636297 -2.323688379133349 1.8935927243628992 -2.2757098110650675 Q 1.9048278709775528 -2.2156201157708892 1.9069508880200603 -2.1755608746567936 Q 1.909073905062568 -2.1355016335426984 1.8926737880073254 -2.098161492131955 Q 1.8762736709520829 -2.060821350721211 1.8316784943261442 -2.038187963398467 Q 1.7911516451306682 -2.018628451791907 1.7478637704373097 -2.0254957587263682 Q 1.7045758957439514 -2.032363065660829 1.6663368249304906 -2.0644297690043776 Q 1.6280977541170298 -2.096496472347926 1.6024530611217624 -2.1496316746264386 Q 1.5750697448725786 -2.206369263500105 1.5726997821475728 -2.2607441959293237 M 2.3438749111495345 -1.4212049368043091 L 1.7997042024919259 -1.3565346975974224 L 1.7889651664192494 -1.446898811626332 L 1.8693991580273996 -1.456457733844868 Q 1.824624347839446 -1.477319573951453 1.7958010307289094 -1.520721375650754 Q 1.7669777136183729 -1.5641231773500552 1.7603690760351873 -1.619731862906307 Q 1.7528163473686895 -1.6832846463991666 1.7731125911275862 -1.7370555724585106 Q 1.793408834886483 -1.7908264985178546 1.8425571478467935 -1.826374963086038 Q 1.8917054608071038 -1.8619234276542214 1.9671743912048745 -1.8708922929456873 L 2.2859313209112475 -1.9087739476635899 L 2.29655234559851 -1.8194028458767564 L 1.9897115627970479 -1.782937327783822 Q 1.9092775711888978 -1.773378405565286 1.87092000546057 -1.7275314083746627 Q 1.8325624397322422 -1.6816844111840394 1.840941248096638 -1.6111805419966485 Q 1.8495560792318622 -1.538690648325106 1.8991981083126679 -1.502294646501548 Q 1.9488401373934738 -1.4658986446779902 2.034239190212004 -1.4760476238235967 L 2.333135875076858 -1.5115690508332187 L 2.3438749111495345 -1.4212049368043091 M 2.494200367142345 -1.0013556903661005 L 1.761003818284173 -1.1014697290543194 L 1.7733151392579944 -1.1916330884409323 L 2.5065116881161664 -1.0915190497527134 L 2.494200367142345 -1.0013556903661005" fill="#404040" fill-rule="nonzero"></path></g><g><path d=" M -1.9070382412997156 0.3309090909090909 Q -1.947492786754261 0.3309090909090909 -1.9754473322088064 0.3159090909090909 Q -2.003401877663352 0.3009090909090909 -2.018174604936079 0.2736363636363636 Q -2.0329473322088063 0.24636363636363634 -2.0347655140269882 0.20954545454545453 Q -2.0352200594815337 0.18954545454545454 -2.0352200594815337 0.16704545454545452 Q -2.0352200594815337 0.14454545454545453 -2.0347655140269882 0.12409090909090909 Q -2.0329473322088063 0.08727272727272725 -2.018174604936079 0.06022727272727274 Q -2.003401877663352 0.0331818181818182 -1.9752200594815337 0.018409090909090875 Q -1.9470382412997156 0.0036363636363636043 -1.9070382412997156 0.0036363636363636043 Q -1.8752200594815338 0.0036363636363636043 -1.8515836958451701 0.012727272727272698 Q -1.8279473322088065 0.021818181818181792 -1.8127200594815338 0.03568181818181815 Q -1.797492786754261 0.04954545454545456 -1.789992786754261 0.06454545454545452 Q -1.782492786754261 0.07954545454545453 -1.7820382412997156 0.09090909090909091 Q -1.7815836958451703 0.095 -1.7843109685724428 0.0975 Q -1.7870382412997157 0.1 -1.79158369584517 0.1 L -1.818401877663352 0.1 Q -1.8229473322088066 0.1 -1.824992786754261 0.09818181818181818 Q -1.8270382412997157 0.09636363636363635 -1.8288564231178974 0.0918181818181818 Q -1.8329473322088066 0.07999999999999999 -1.8422655140269883 0.0686363636363636 Q -1.8515836958451701 0.05727272727272725 -1.8672655140269883 0.049772727272727246 Q -1.8829473322088066 0.04227272727272724 -1.9070382412997156 0.04227272727272724 Q -1.943401877663352 0.04227272727272724 -1.9654473322088064 0.06181818181818183 Q -1.987492786754261 0.08136363636363636 -1.9893109685724428 0.12636363636363634 Q -1.9906746049360793 0.1668181818181818 -1.9893109685724428 0.20727272727272728 Q -1.987492786754261 0.2527272727272727 -1.9652200594815339 0.27249999999999996 Q -1.9429473322088064 0.29227272727272724 -1.9070382412997156 0.29227272727272724 Q -1.8829473322088066 0.29227272727272724 -1.86408369584517 0.2831818181818182 Q -1.8452200594815338 0.2740909090909091 -1.8343109685724428 0.2556818181818182 Q -1.823401877663352 0.23727272727272725 -1.823401877663352 0.20863636363636362 L -1.823401877663352 0.18954545454545454 L -1.8915836958451702 0.18954545454545454 Q -1.8961291503906248 0.18954545454545454 -1.8990836958451702 0.18659090909090909 Q -1.9020382412997157 0.18363636363636363 -1.9020382412997157 0.17863636363636362 L -1.9020382412997157 0.1640909090909091 Q -1.9020382412997157 0.1590909090909091 -1.8990836958451702 0.15613636363636363 Q -1.8961291503906248 0.15318181818181817 -1.8915836958451702 0.15318181818181817 L -1.7888564231178974 0.15318181818181817 Q -1.7838564231178975 0.15318181818181817 -1.7811291503906248 0.15613636363636363 Q -1.778401877663352 0.1590909090909091 -1.778401877663352 0.1640909090909091 L -1.778401877663352 0.2077272727272727 Q -1.778401877663352 0.245 -1.7936291503906248 0.2727272727272727 Q -1.8088564231178974 0.3004545454545454 -1.8379473322088065 0.3156818181818182 Q -1.8670382412997155 0.3309090909090909 -1.9070382412997156 0.3309090909090909 M -1.6202340420809656 0.3309090909090909 Q -1.667506769353693 0.3309090909090909 -1.6952340420809655 0.30204545454545456 Q -1.7229613148082383 0.2731818181818182 -1.725688587535511 0.22318181818181818 Q -1.7261431329900565 0.21727272727272728 -1.7261431329900565 0.20795454545454545 Q -1.7261431329900565 0.19863636363636364 -1.725688587535511 0.19272727272727272 Q -1.723870405717329 0.16045454545454543 -1.710688587535511 0.13613636363636364 Q -1.6975067693536927 0.11181818181818182 -1.6745522238991473 0.09863636363636363 Q -1.6515976784446018 0.08545454545454545 -1.620688587535511 0.08545454545454545 Q -1.5861431329900564 0.08545454545454545 -1.5627340420809657 0.1 Q -1.5393249511718747 0.11454545454545453 -1.5270522238991473 0.14136363636363636 Q -1.51477949662642 0.16818181818181818 -1.51477949662642 0.2040909090909091 L -1.51477949662642 0.2118181818181818 Q -1.51477949662642 0.2168181818181818 -1.5177340420809655 0.21954545454545454 Q -1.520688587535511 0.22227272727272726 -1.5252340420809656 0.22227272727272726 L -1.6825067693536928 0.22227272727272726 Q -1.6825067693536928 0.22272727272727272 -1.6825067693536928 0.22409090909090906 Q -1.6825067693536928 0.22545454545454546 -1.6825067693536928 0.22636363636363635 Q -1.6815976784446018 0.245 -1.6743249511718745 0.2611363636363636 Q -1.6670522238991474 0.2772727272727273 -1.653188587535511 0.28727272727272724 Q -1.6393249511718746 0.29727272727272724 -1.620688587535511 0.29727272727272724 Q -1.6043249511718747 0.29727272727272724 -1.5934158602627837 0.29227272727272724 Q -1.5825067693536927 0.28727272727272724 -1.5756885875355109 0.28113636363636363 Q -1.5688704057173293 0.275 -1.5665976784446018 0.27136363636363636 Q -1.5625067693536927 0.2659090909090909 -1.5602340420809655 0.26477272727272727 Q -1.5579613148082383 0.2636363636363636 -1.5529613148082382 0.2636363636363636 L -1.530688587535511 0.2636363636363636 Q -1.5265976784446018 0.2636363636363636 -1.5236431329900564 0.2661363636363636 Q -1.520688587535511 0.2686363636363636 -1.5211431329900564 0.2731818181818182 Q -1.521597678444602 0.27999999999999997 -1.5284158602627838 0.2897727272727273 Q -1.5352340420809656 0.29954545454545456 -1.5477340420809655 0.3090909090909091 Q -1.5602340420809655 0.3186363636363636 -1.5786431329900565 0.32477272727272727 Q -1.5970522238991474 0.3309090909090909 -1.6202340420809656 0.3309090909090909 M -1.6825067693536928 0.1909090909090909 L -1.5579613148082383 0.1909090909090909 L -1.5579613148082383 0.18954545454545454 Q -1.5579613148082383 0.16909090909090907 -1.5654613148082384 0.15318181818181817 Q -1.5729613148082382 0.13727272727272727 -1.5870522238991474 0.12795454545454546 Q -1.6011431329900565 0.11863636363636362 -1.620688587535511 0.11863636363636362 Q -1.6402340420809656 0.11863636363636362 -1.654097678444602 0.12795454545454546 Q -1.6679613148082382 0.13727272727272727 -1.6752340420809655 0.15318181818181817 Q -1.6825067693536928 0.16909090909090907 -1.6825067693536928 0.18954545454545454 L -1.6825067693536928 0.1909090909090909 M -1.3738715154474428 0.3309090909090909 Q -1.3993260609019882 0.3309090909090909 -1.4175078790838065 0.3245454545454545 Q -1.4356896972656246 0.3181818181818182 -1.447053333629261 0.3090909090909091 Q -1.4584169699928973 0.3 -1.4640987881747156 0.2909090909090909 Q -1.4697806063565337 0.2818181818181818 -1.4702351518110792 0.27636363636363637 Q -1.4706896972656247 0.27136363636363636 -1.467053333629261 0.2686363636363636 Q -1.4634169699928974 0.2659090909090909 -1.4597806063565337 0.2659090909090909 L -1.4393260609019882 0.2659090909090909 Q -1.437053333629261 0.2659090909090909 -1.4354624245383518 0.2665909090909091 Q -1.4338715154474428 0.2672727272727273 -1.4311442427201702 0.27045454545454545 Q -1.425235151811079 0.2768181818181818 -1.417962424538352 0.2831818181818182 Q -1.4106896972656247 0.28954545454545455 -1.4000078790838064 0.29363636363636364 Q -1.3893260609019882 0.29772727272727273 -1.3734169699928973 0.29772727272727273 Q -1.3502351518110791 0.29772727272727273 -1.3352351518110792 0.2888636363636364 Q -1.320235151811079 0.27999999999999997 -1.320235151811079 0.2627272727272727 Q -1.320235151811079 0.25136363636363634 -1.326371515447443 0.24454545454545454 Q -1.3325078790838065 0.23772727272727273 -1.3481896972656247 0.23227272727272727 Q -1.3638715154474428 0.2268181818181818 -1.3911442427201701 0.2209090909090909 Q -1.4184169699928975 0.21454545454545454 -1.4343260609019883 0.2052272727272727 Q -1.4502351518110792 0.1959090909090909 -1.457053333629261 0.18295454545454545 Q -1.4638715154474429 0.16999999999999998 -1.4638715154474429 0.15363636363636363 Q -1.4638715154474429 0.1368181818181818 -1.4538715154474429 0.12113636363636363 Q -1.4438715154474429 0.10545454545454544 -1.424553333629261 0.09545454545454546 Q -1.4052351518110793 0.08545454545454545 -1.37614424272017 0.08545454545454545 Q -1.3525078790838065 0.08545454545454545 -1.3356896972656247 0.09136363636363637 Q -1.3188715154474429 0.09727272727272726 -1.3079624245383519 0.10613636363636364 Q -1.2970533336292611 0.11499999999999999 -1.2915987881747155 0.12363636363636363 Q -1.2861442427201701 0.13227272727272726 -1.2856896972656247 0.13818181818181818 Q -1.2852351518110792 0.14272727272727273 -1.2884169699928973 0.14568181818181816 Q -1.2915987881747155 0.14863636363636362 -1.2956896972656247 0.14863636363636362 L -1.3147806063565337 0.14863636363636362 Q -1.3179624245383519 0.14863636363636362 -1.3200078790838066 0.14727272727272728 Q -1.322053333629261 0.1459090909090909 -1.3238715154474427 0.14409090909090908 Q -1.3284169699928974 0.13818181818181818 -1.334553333629261 0.13227272727272726 Q -1.3406896972656246 0.12636363636363634 -1.3504624245383519 0.1225 Q -1.3602351518110791 0.11863636363636362 -1.37614424272017 0.11863636363636362 Q -1.3988715154474427 0.11863636363636362 -1.4102351518110792 0.12818181818181817 Q -1.4215987881747156 0.13772727272727273 -1.4215987881747156 0.15227272727272725 Q -1.4215987881747156 0.1609090909090909 -1.4165987881747155 0.16772727272727272 Q -1.4115987881747156 0.17454545454545453 -1.3975078790838065 0.18 Q -1.3834169699928973 0.18545454545454546 -1.3556896972656247 0.1918181818181818 Q -1.3256896972656247 0.19772727272727272 -1.3084169699928974 0.2077272727272727 Q -1.29114424272017 0.2177272727272727 -1.283871515447443 0.2309090909090909 Q -1.2765987881747156 0.24409090909090908 -1.2765987881747156 0.26136363636363635 Q -1.2765987881747156 0.28045454545454546 -1.2875078790838064 0.2963636363636364 Q -1.2984169699928974 0.31227272727272726 -1.320235151811079 0.3215909090909091 Q -1.342053333629261 0.3309090909090909 -1.3738715154474428 0.3309090909090909 M -1.127492786754261 0.32636363636363636 Q -1.1529473322088066 0.32636363636363636 -1.1688564231178975 0.3165909090909091 Q -1.1847655140269884 0.3068181818181818 -1.1920382412997157 0.2888636363636364 Q -1.1993109685724428 0.2709090909090909 -1.1993109685724428 0.24636363636363634 L -1.1993109685724428 0.12636363636363634 L -1.2347655140269884 0.12636363636363634 Q -1.2393109685724428 0.12636363636363634 -1.2422655140269883 0.12340909090909091 Q -1.2452200594815337 0.12045454545454545 -1.2452200594815337 0.1159090909090909 L -1.2452200594815337 0.10045454545454544 Q -1.2452200594815337 0.09590909090909089 -1.2422655140269883 0.09295454545454546 Q -1.2393109685724428 0.09 -1.2347655140269884 0.09 L -1.1993109685724428 0.09 L -1.1993109685724428 0.014090909090909098 Q -1.1993109685724428 0.009545454545454524 -1.1963564231178974 0.006590909090909092 Q -1.193401877663352 0.0036363636363636043 -1.1888564231178975 0.0036363636363636043 L -1.167492786754261 0.0036363636363636043 Q -1.1629473322088066 0.0036363636363636043 -1.159992786754261 0.006590909090909092 Q -1.1570382412997156 0.009545454545454524 -1.1570382412997156 0.014090909090909098 L -1.1570382412997156 0.09 L -1.1006746049360792 0.09 Q -1.0956746049360793 0.09 -1.0929473322088066 0.09295454545454546 Q -1.0902200594815339 0.09590909090909089 -1.0902200594815339 0.10045454545454544 L -1.0902200594815339 0.1159090909090909 Q -1.0902200594815339 0.12045454545454545 -1.0929473322088066 0.12340909090909091 Q -1.0956746049360793 0.12636363636363634 -1.1006746049360792 0.12636363636363634 L -1.1570382412997156 0.12636363636363634 L -1.1570382412997156 0.24318181818181817 Q -1.1570382412997156 0.26454545454545453 -1.1497655140269885 0.2768181818181818 Q -1.1424927867542611 0.28909090909090907 -1.1238564231178974 0.28909090909090907 L -1.0961291503906248 0.28909090909090907 Q -1.0915836958451701 0.28909090909090907 -1.0886291503906247 0.29204545454545455 Q -1.0856746049360793 0.295 -1.0856746049360793 0.29954545454545456 L -1.0856746049360793 0.3159090909090909 Q -1.0856746049360793 0.32045454545454544 -1.0886291503906247 0.3234090909090909 Q -1.0915836958451701 0.32636363636363636 -1.0961291503906248 0.32636363636363636 L -1.127492786754261 0.32636363636363636 M -1.0270422363281246 0.32636363636363636 Q -1.0315876908735793 0.32636363636363636 -1.0345422363281247 0.3234090909090909 Q -1.0374967817826701 0.32045454545454544 -1.0374967817826701 0.3159090909090909 L -1.0374967817826701 0.10045454545454544 Q -1.0374967817826701 0.09590909090909089 -1.0345422363281247 0.09295454545454546 Q -1.0315876908735793 0.09 -1.0270422363281246 0.09 L -1.005224054509943 0.09 Q -1.0006785999644883 0.09 -0.997724054509943 0.09295454545454546 Q -0.9947695090553974 0.09590909090909089 -0.9947695090553974 0.10045454545454544 L -0.9947695090553974 0.3159090909090909 Q -0.9947695090553974 0.32045454545454544 -0.997724054509943 0.3234090909090909 Q -1.0006785999644883 0.32636363636363636 -1.005224054509943 0.32636363636363636 L -1.0270422363281246 0.32636363636363636 M -1.0306785999644883 0.0459090909090909 Q -1.035224054509943 0.0459090909090909 -1.0381785999644884 0.04295454545454547 Q -1.0411331454190338 0.03999999999999998 -1.0411331454190338 0.03545454545454546 L -1.0411331454190338 0.010909090909090924 Q -1.0411331454190338 0.006363636363636349 -1.0381785999644884 0.0031818181818181746 Q -1.035224054509943 0 -1.0306785999644883 0 L -1.0020422363281247 0 Q -0.9974967817826702 0 -0.994314963600852 0.0031818181818181746 Q -0.9911331454190339 0.006363636363636349 -0.9911331454190339 0.010909090909090924 L -0.9911331454190339 0.03545454545454546 Q -0.9911331454190339 0.03999999999999998 -0.994314963600852 0.04295454545454547 Q -0.9974967817826702 0.0459090909090909 -1.0020422363281247 0.0459090909090909 L -1.0306785999644883 0.0459090909090909 M -0.8252156205610792 0.3309090909090909 Q -0.8597610751065338 0.3309090909090909 -0.882942893288352 0.31772727272727275 Q -0.9061247114701702 0.30454545454545456 -0.9183974387428975 0.28113636363636363 Q -0.9306701660156247 0.2577272727272727 -0.932033802379261 0.22772727272727272 Q -0.9324883478338065 0.21999999999999997 -0.9324883478338065 0.20795454545454545 Q -0.9324883478338065 0.1959090909090909 -0.932033802379261 0.18863636363636363 Q -0.9306701660156247 0.15818181818181817 -0.9181701660156247 0.13499999999999998 Q -0.9056701660156247 0.11181818181818182 -0.8824883478338066 0.09863636363636363 Q -0.8593065296519884 0.08545454545454545 -0.8252156205610792 0.08545454545454545 Q -0.7911247114701702 0.08545454545454545 -0.767942893288352 0.09863636363636363 Q -0.7447610751065338 0.11181818181818182 -0.7322610751065338 0.13499999999999998 Q -0.7197610751065338 0.15818181818181817 -0.7183974387428974 0.18863636363636363 Q -0.717942893288352 0.1959090909090909 -0.717942893288352 0.20795454545454545 Q -0.717942893288352 0.21999999999999997 -0.7183974387428974 0.22772727272727272 Q -0.7197610751065338 0.2577272727272727 -0.7320338023792611 0.28113636363636363 Q -0.7443065296519884 0.30454545454545456 -0.7674883478338066 0.31772727272727275 Q -0.7906701660156247 0.3309090909090909 -0.8252156205610792 0.3309090909090909 M -0.8252156205610792 0.2959090909090909 Q -0.7970338023792611 0.2959090909090909 -0.7802156205610793 0.27795454545454545 Q -0.7633974387428974 0.26 -0.7620338023792611 0.22545454545454546 Q -0.7615792569247156 0.21863636363636363 -0.7615792569247156 0.2081818181818182 Q -0.7615792569247156 0.19772727272727272 -0.7620338023792611 0.1909090909090909 Q -0.7633974387428974 0.15636363636363634 -0.7802156205610793 0.1384090909090909 Q -0.7970338023792611 0.12045454545454545 -0.8252156205610792 0.12045454545454545 Q -0.8533974387428974 0.12045454545454545 -0.870442893288352 0.1384090909090909 Q -0.8874883478338065 0.15636363636363634 -0.8883974387428974 0.1909090909090909 Q -0.8888519841974429 0.19772727272727272 -0.8888519841974429 0.2081818181818182 Q -0.8888519841974429 0.21863636363636363 -0.8883974387428974 0.22545454545454546 Q -0.8874883478338065 0.26 -0.870442893288352 0.27795454545454545 Q -0.8533974387428974 0.2959090909090909 -0.8252156205610792 0.2959090909090909 M -0.646136252663352 0.32636363636363636 Q -0.6506817072088065 0.32636363636363636 -0.6536362526633519 0.3234090909090909 Q -0.6565907981178973 0.32045454545454544 -0.6565907981178973 0.3159090909090909 L -0.6565907981178973 0.10045454545454544 Q -0.6565907981178973 0.09590909090909089 -0.6536362526633519 0.09295454545454546 Q -0.6506817072088065 0.09 -0.646136252663352 0.09 L -0.6247726162997156 0.09 Q -0.620227161754261 0.09 -0.6172726162997155 0.09295454545454546 Q -0.6143180708451701 0.09590909090909089 -0.6143180708451701 0.10045454545454544 L -0.6143180708451701 0.12045454545454545 Q -0.6024998890269883 0.10499999999999998 -0.5845453435724428 0.09522727272727272 Q -0.5665907981178974 0.08545454545454545 -0.5384089799360792 0.08545454545454545 Q -0.5088635253906246 0.08545454545454545 -0.4881817072088065 0.09840909090909089 Q -0.4674998890269883 0.11136363636363636 -0.4568180708451701 0.1343181818181818 Q -0.44613625266335194 0.15727272727272726 -0.44613625266335194 0.18772727272727271 L -0.44613625266335194 0.3159090909090909 Q -0.44613625266335194 0.32045454545454544 -0.44909079811789737 0.3234090909090909 Q -0.45204534357244286 0.32636363636363636 -0.4565907981178974 0.32636363636363636 L -0.4793180708451701 0.32636363636363636 Q -0.48386352539062466 0.32636363636363636 -0.48681807084517015 0.3234090909090909 Q -0.4897726162997156 0.32045454545454544 -0.4897726162997156 0.3159090909090909 L -0.4897726162997156 0.19 Q -0.4897726162997156 0.15818181818181817 -0.505227161754261 0.14022727272727273 Q -0.5206817072088065 0.12227272727272726 -0.5506817072088065 0.12227272727272726 Q -0.5788635253906247 0.12227272727272726 -0.5959089799360792 0.14022727272727273 Q -0.6129544344815337 0.15818181818181817 -0.6129544344815337 0.19 L -0.6129544344815337 0.3159090909090909 Q -0.6129544344815337 0.32045454545454544 -0.6159089799360792 0.3234090909090909 Q -0.6188635253906246 0.32636363636363636 -0.6234089799360792 0.32636363636363636 L -0.646136252663352 0.32636363636363636 M -0.2502211692116474 0.32636363636363636 Q -0.2547666237571019 0.32636363636363636 -0.25772116921164734 0.3234090909090909 Q -0.2606757146661928 0.32045454545454544 -0.2606757146661928 0.3159090909090909 L -0.2606757146661928 0.10045454545454544 Q -0.2606757146661928 0.09590909090909089 -0.25772116921164734 0.09295454545454546 Q -0.2547666237571019 0.09 -0.2502211692116474 0.09 L -0.2297666237571019 0.09 Q -0.22522116921164737 0.09 -0.2222666237571019 0.09295454545454546 Q -0.21931207830255645 0.09590909090909089 -0.21931207830255645 0.10045454545454544 L -0.21931207830255645 0.11636363636363636 Q -0.208857532848011 0.10227272727272727 -0.19294844193892008 0.09386363636363634 Q -0.17703935102982918 0.08545454545454545 -0.1547666237571019 0.08545454545454545 Q -0.10340298739346554 0.08499999999999999 -0.08203935102982918 0.12727272727272726 Q -0.07158480557528374 0.10818181818181818 -0.05158480557528372 0.0968181818181818 Q -0.0315848055752837 0.08545454545454545 -0.006130260120738251 0.08545454545454545 Q 0.01750610351562537 0.08545454545454545 0.03682428533380716 0.09636363636363635 Q 0.056142467151989006 0.10727272727272727 0.06727883078835262 0.1293181818181818 Q 0.07841519442471628 0.15136363636363637 0.07841519442471628 0.18454545454545454 L 0.07841519442471628 0.3159090909090909 Q 0.07841519442471628 0.32045454545454544 0.0754606489701708 0.3234090909090909 Q 0.07250610351562536 0.32636363636363636 0.06796064897017079 0.32636363636363636 L 0.04659701260653443 0.32636363636363636 Q 0.04205155806107991 0.32636363636363636 0.039097012606534476 0.3234090909090909 Q 0.03614246715198899 0.32045454545454544 0.03614246715198899 0.3159090909090909 L 0.03614246715198899 0.18863636363636363 Q 0.03614246715198899 0.16318181818181818 0.028869739879261724 0.14863636363636362 Q 0.02159701260653446 0.1340909090909091 0.009324285333807192 0.12818181818181817 Q -0.0029484419389200767 0.12227272727272726 -0.01749389648437466 0.12227272727272726 Q -0.029312078302556444 0.12227272727272726 -0.04158480557528371 0.12818181818181817 Q -0.05385753284801101 0.1340909090909091 -0.061812078302556445 0.14863636363636362 Q -0.06976662375710191 0.16318181818181818 -0.06976662375710191 0.18863636363636363 L -0.06976662375710191 0.3159090909090909 Q -0.06976662375710191 0.32045454545454544 -0.07272116921164737 0.3234090909090909 Q -0.07567571466619283 0.32636363636363636 -0.08022116921164738 0.32636363636363636 L -0.10158480557528374 0.32636363636363636 Q -0.10613026012073828 0.32636363636363636 -0.10908480557528372 0.3234090909090909 Q -0.11203935102982918 0.32045454545454544 -0.11203935102982918 0.3159090909090909 L -0.11203935102982918 0.18863636363636363 Q -0.11203935102982918 0.16318181818181818 -0.1197666237571019 0.14863636363636362 Q -0.12749389648437465 0.1340909090909091 -0.13976662375710192 0.12818181818181817 Q -0.15203935102982918 0.12227272727272726 -0.16567571466619282 0.12227272727272726 Q -0.17749389648437464 0.12227272727272726 -0.1897666237571019 0.12818181818181817 Q -0.20203935102982917 0.1340909090909091 -0.20999389648437464 0.14863636363636362 Q -0.2179484419389201 0.16318181818181818 -0.2179484419389201 0.18818181818181817 L -0.2179484419389201 0.3159090909090909 Q -0.2179484419389201 0.32045454545454544 -0.22090298739346553 0.3234090909090909 Q -0.22385753284801102 0.32636363636363636 -0.22840298739346554 0.32636363636363636 L -0.2502211692116474 0.32636363636363636 M 0.23613203568892083 0.3309090909090909 Q 0.20704112659801172 0.3309090909090909 0.186813853870739 0.31795454545454543 Q 0.16658658114346628 0.305 0.1561320356889208 0.2818181818181818 Q 0.14567749023437537 0.2586363636363636 0.14567749023437537 0.22863636363636364 L 0.14567749023437537 0.10045454545454544 Q 0.14567749023437537 0.09590909090909089 0.1486320356889208 0.09295454545454546 Q 0.15158658114346626 0.09 0.1561320356889208 0.09 L 0.17885930841619355 0.09 Q 0.1834047629616481 0.09 0.18635930841619355 0.09295454545454546 Q 0.189313853870739 0.09590909090909089 0.189313853870739 0.10045454545454544 L 0.189313853870739 0.22636363636363635 Q 0.189313853870739 0.29409090909090907 0.2484047629616481 0.29409090909090907 Q 0.27658658114346624 0.29409090909090907 0.2936320356889208 0.2761363636363636 Q 0.31067749023437535 0.2581818181818182 0.31067749023437535 0.22636363636363635 L 0.31067749023437535 0.10045454545454544 Q 0.31067749023437535 0.09590909090909089 0.31363203568892084 0.09295454545454546 Q 0.3165865811434663 0.09 0.3211320356889208 0.09 L 0.34385930841619355 0.09 Q 0.34840476296164813 0.09 0.3511320356889208 0.09295454545454546 Q 0.3538593084161935 0.09590909090909089 0.3538593084161935 0.10045454545454544 L 0.3538593084161935 0.3159090909090909 Q 0.3538593084161935 0.32045454545454544 0.3511320356889208 0.3234090909090909 Q 0.34840476296164813 0.32636363636363636 0.34385930841619355 0.32636363636363636 L 0.3224956720525572 0.32636363636363636 Q 0.3179502175071026 0.32636363636363636 0.3149956720525572 0.3234090909090909 Q 0.31204112659801175 0.32045454545454544 0.31204112659801175 0.3159090909090909 L 0.31204112659801175 0.2959090909090909 Q 0.29976839932528443 0.3118181818181818 0.28226839932528447 0.32136363636363635 Q 0.26476839932528445 0.3309090909090909 0.23613203568892083 0.3309090909090909 M 0.436581920276989 0.32636363636363636 Q 0.4320364657315345 0.32636363636363636 0.429081920276989 0.3234090909090909 Q 0.42612737482244356 0.32045454545454544 0.42612737482244356 0.3159090909090909 L 0.42612737482244356 0.10045454545454544 Q 0.42612737482244356 0.09590909090909089 0.429081920276989 0.09295454545454546 Q 0.4320364657315345 0.09 0.436581920276989 0.09 L 0.4579455566406254 0.09 Q 0.46249101118607994 0.09 0.46544555664062537 0.09295454545454546 Q 0.46840010209517086 0.09590909090909089 0.46840010209517086 0.10045454545454544 L 0.46840010209517086 0.12045454545454545 Q 0.48021828391335264 0.10499999999999998 0.4981728293678981 0.09522727272727272 Q 0.5161273748224435 0.08545454545454545 0.5443091930042617 0.08545454545454545 Q 0.5738546475497163 0.08545454545454545 0.5945364657315345 0.09840909090909089 Q 0.6152182839133526 0.11136363636363636 0.6259001020951709 0.1343181818181818 Q 0.636581920276989 0.15727272727272726 0.636581920276989 0.18772727272727271 L 0.636581920276989 0.3159090909090909 Q 0.636581920276989 0.32045454545454544 0.6336273748224436 0.3234090909090909 Q 0.6306728293678981 0.32636363636363636 0.6261273748224436 0.32636363636363636 L 0.6034001020951708 0.32636363636363636 Q 0.5988546475497163 0.32636363636363636 0.5959001020951709 0.3234090909090909 Q 0.5929455566406254 0.32045454545454544 0.5929455566406254 0.3159090909090909 L 0.5929455566406254 0.19 Q 0.5929455566406254 0.15818181818181817 0.5774910111860799 0.14022727272727273 Q 0.5620364657315344 0.12227272727272726 0.5320364657315345 0.12227272727272726 Q 0.5038546475497163 0.12227272727272726 0.48680919300426173 0.14022727272727273 Q 0.4697637384588072 0.15818181818181817 0.4697637384588072 0.19 L 0.4697637384588072 0.3159090909090909 Q 0.4697637384588072 0.32045454545454544 0.46680919300426177 0.3234090909090909 Q 0.4638546475497163 0.32636363636363636 0.45930919300426176 0.32636363636363636 L 0.436581920276989 0.32636363636363636 M 0.7165901322798299 0.32636363636363636 Q 0.7120446777343754 0.32636363636363636 0.70909013227983 0.3234090909090909 Q 0.7061355868252845 0.32045454545454544 0.7061355868252845 0.3159090909090909 L 0.7061355868252845 0.10045454545454544 Q 0.7061355868252845 0.09590909090909089 0.70909013227983 0.09295454545454546 Q 0.7120446777343754 0.09 0.7165901322798299 0.09 L 0.7384083140980118 0.09 Q 0.7429537686434663 0.09 0.7459083140980117 0.09295454545454546 Q 0.7488628595525573 0.09590909090909089 0.7488628595525573 0.10045454545454544 L 0.7488628595525573 0.3159090909090909 Q 0.7488628595525573 0.32045454545454544 0.7459083140980117 0.3234090909090909 Q 0.7429537686434663 0.32636363636363636 0.7384083140980118 0.32636363636363636 L 0.7165901322798299 0.32636363636363636 M 0.7129537686434663 0.0459090909090909 Q 0.7084083140980117 0.0459090909090909 0.7054537686434663 0.04295454545454547 Q 0.7024992231889209 0.03999999999999998 0.7024992231889209 0.03545454545454546 L 0.7024992231889209 0.010909090909090924 Q 0.7024992231889209 0.006363636363636349 0.7054537686434663 0.0031818181818181746 Q 0.7084083140980117 0 0.7129537686434663 0 L 0.74159013227983 0 Q 0.7461355868252845 0 0.7493174050071026 0.0031818181818181746 Q 0.7524992231889208 0.006363636363636349 0.7524992231889208 0.010909090909090924 L 0.7524992231889208 0.03545454545454546 Q 0.7524992231889208 0.03999999999999998 0.7493174050071026 0.04295454545454547 Q 0.7461355868252845 0.0459090909090909 0.74159013227983 0.0459090909090909 L 0.7129537686434663 0.0459090909090909 M 0.917053111683239 0.3309090909090909 Q 0.8847803844105118 0.3309090909090909 0.8613712935014208 0.3184090909090909 Q 0.83796220259233 0.3059090909090909 0.8252349298650572 0.2825 Q 0.8125076571377845 0.2590909090909091 0.8115985662286936 0.22636363636363635 Q 0.8111440207741482 0.21954545454545454 0.8111440207741482 0.2081818181818182 Q 0.8111440207741482 0.1968181818181818 0.8115985662286936 0.19 Q 0.8125076571377845 0.15727272727272726 0.8252349298650572 0.13386363636363635 Q 0.83796220259233 0.11045454545454544 0.8613712935014208 0.09795454545454543 Q 0.8847803844105118 0.08545454545454545 0.917053111683239 0.08545454545454545 Q 0.9434167480468754 0.08545454545454545 0.9622803844105118 0.09272727272727271 Q 0.9811440207741482 0.1 0.9934167480468754 0.11136363636363636 Q 1.0056894753196026 0.12272727272727271 1.0118258389559665 0.1359090909090909 Q 1.01796220259233 0.14909090909090908 1.0184167480468753 0.1609090909090909 Q 1.0188712935014208 0.16545454545454544 1.0156894753196026 0.16818181818181818 Q 1.0125076571377845 0.1709090909090909 1.00796220259233 0.1709090909090909 L 0.9861440207741481 0.1709090909090909 Q 0.9815985662286936 0.1709090909090909 0.9793258389559664 0.16886363636363635 Q 0.977053111683239 0.1668181818181818 0.9747803844105118 0.1618181818181818 Q 0.9665985662286936 0.13954545454545453 0.9525076571377845 0.13045454545454543 Q 0.9384167480468755 0.12136363636363637 0.9175076571377845 0.12136363636363637 Q 0.8902349298650573 0.12136363636363637 0.8731894753196027 0.13818181818181818 Q 0.8561440207741482 0.155 0.8547803844105117 0.19227272727272726 Q 0.8543258389559664 0.20863636363636362 0.8547803844105117 0.22409090909090906 Q 0.8561440207741482 0.26181818181818184 0.8731894753196027 0.2784090909090909 Q 0.8902349298650573 0.295 0.9175076571377845 0.295 Q 0.9384167480468755 0.295 0.9525076571377845 0.2859090909090909 Q 0.9665985662286936 0.2768181818181818 0.9747803844105118 0.2545454545454545 Q 0.977053111683239 0.24954545454545454 0.9793258389559664 0.24727272727272726 Q 0.9815985662286936 0.245 0.9861440207741481 0.245 L 1.00796220259233 0.245 Q 1.0125076571377845 0.245 1.0156894753196026 0.24795454545454543 Q 1.0188712935014208 0.2509090909090909 1.0184167480468753 0.25545454545454543 Q 1.01796220259233 0.265 1.0143258389559664 0.275 Q 1.0106894753196027 0.285 1.0027349298650572 0.2952272727272727 Q 0.9947803844105118 0.3054545454545454 0.9829622025923299 0.3134090909090909 Q 0.9711440207741482 0.32136363636363635 0.9547803844105118 0.3261363636363636 Q 0.9384167480468755 0.3309090909090909 0.917053111683239 0.3309090909090909 M 1.0875085449218755 0.32636363636363636 Q 1.082963090376421 0.32636363636363636 1.0800085449218755 0.3234090909090909 Q 1.07705399946733 0.32045454545454544 1.07705399946733 0.3159090909090909 L 1.07705399946733 0.10045454545454544 Q 1.07705399946733 0.09590909090909089 1.0800085449218755 0.09295454545454546 Q 1.082963090376421 0.09 1.0875085449218755 0.09 L 1.1093267267400573 0.09 Q 1.113872181285512 0.09 1.1168267267400573 0.09295454545454546 Q 1.1197812721946028 0.09590909090909089 1.1197812721946028 0.10045454545454544 L 1.1197812721946028 0.3159090909090909 Q 1.1197812721946028 0.32045454545454544 1.1168267267400573 0.3234090909090909 Q 1.113872181285512 0.32636363636363636 1.1093267267400573 0.32636363636363636 L 1.0875085449218755 0.32636363636363636 M 1.0838721812855119 0.0459090909090909 Q 1.0793267267400573 0.0459090909090909 1.0763721812855118 0.04295454545454547 Q 1.0734176358309664 0.03999999999999998 1.0734176358309664 0.03545454545454546 L 1.0734176358309664 0.010909090909090924 Q 1.0734176358309664 0.006363636363636349 1.0763721812855118 0.0031818181818181746 Q 1.0793267267400573 0 1.0838721812855119 0 L 1.1125085449218755 0 Q 1.11705399946733 0 1.1202358176491483 0.0031818181818181746 Q 1.1234176358309664 0.006363636363636349 1.1234176358309664 0.010909090909090924 L 1.1234176358309664 0.03545454545454546 Q 1.1234176358309664 0.03999999999999998 1.1202358176491483 0.04295454545454547 Q 1.11705399946733 0.0459090909090909 1.1125085449218755 0.0459090909090909 L 1.0838721812855119 0.0459090909090909 M 1.2065888006036936 0.4127272727272727 Q 1.2020433460582391 0.4127272727272727 1.1990888006036937 0.4097727272727273 Q 1.1961342551491483 0.4068181818181818 1.1961342551491483 0.4022727272727273 L 1.1961342551491483 0.10045454545454544 Q 1.1961342551491483 0.09590909090909089 1.1990888006036937 0.09295454545454546 Q 1.2020433460582391 0.09 1.2065888006036936 0.09 L 1.2274978915127845 0.09 Q 1.2320433460582392 0.09 1.2349978915127846 0.09295454545454546 Q 1.23795243696733 0.09590909090909089 1.23795243696733 0.10045454545454544 L 1.23795243696733 0.12045454545454545 Q 1.248861527876421 0.10545454545454544 1.267043346058239 0.09545454545454546 Q 1.2852251642400574 0.08545454545454545 1.3124978915127845 0.08545454545454545 Q 1.33795243696733 0.08545454545454545 1.3559069824218755 0.09409090909090909 Q 1.373861527876421 0.10272727272727272 1.38545243696733 0.11772727272727271 Q 1.397043346058239 0.13272727272727272 1.40295243696733 0.1518181818181818 Q 1.408861527876421 0.1709090909090909 1.409770618785512 0.19272727272727272 Q 1.4102251642400572 0.19999999999999998 1.4102251642400572 0.2081818181818182 Q 1.4102251642400572 0.21636363636363637 1.409770618785512 0.22363636363636363 Q 1.408861527876421 0.245 1.40295243696733 0.2643181818181818 Q 1.397043346058239 0.28363636363636363 1.38545243696733 0.2984090909090909 Q 1.373861527876421 0.3131818181818182 1.3559069824218755 0.3220454545454545 Q 1.33795243696733 0.3309090909090909 1.3124978915127845 0.3309090909090909 Q 1.2861342551491481 0.3309090909090909 1.2681797096946028 0.3211363636363636 Q 1.2502251642400573 0.31136363636363634 1.238861527876421 0.2968181818181818 L 1.238861527876421 0.4022727272727273 Q 1.238861527876421 0.4068181818181818 1.2361342551491483 0.4097727272727273 Q 1.2334069824218754 0.4127272727272727 1.228861527876421 0.4127272727272727 L 1.2065888006036936 0.4127272727272727 M 1.30295243696733 0.29409090909090907 Q 1.3265888006036937 0.29409090909090907 1.3399978915127846 0.2838636363636364 Q 1.3534069824218755 0.2736363636363636 1.3593160733309664 0.2570454545454545 Q 1.3652251642400572 0.24045454545454545 1.3661342551491482 0.22136363636363637 Q 1.3665888006036937 0.2081818181818182 1.3661342551491482 0.19499999999999998 Q 1.3652251642400572 0.1759090909090909 1.3593160733309664 0.1593181818181818 Q 1.3534069824218755 0.14272727272727273 1.3399978915127846 0.13249999999999998 Q 1.3265888006036937 0.12227272727272726 1.30295243696733 0.12227272727272726 Q 1.2806797096946028 0.12227272727272726 1.2668160733309664 0.13272727272727272 Q 1.25295243696733 0.1431818181818182 1.2463615278764208 0.1593181818181818 Q 1.2397706187855118 0.17545454545454545 1.238861527876421 0.19227272727272726 Q 1.2384069824218755 0.19954545454545453 1.2384069824218755 0.20954545454545453 Q 1.2384069824218755 0.21954545454545454 1.238861527876421 0.22727272727272727 Q 1.2393160733309663 0.24318181818181817 1.2463615278764208 0.2586363636363636 Q 1.2534069824218754 0.2740909090909091 1.2674978915127846 0.28409090909090906 Q 1.2815888006036937 0.29409090909090907 1.30295243696733 0.29409090909090907 M 1.5370471191406256 0.3309090909090909 Q 1.514319846413353 0.3309090909090909 1.4956834827769891 0.32181818181818184 Q 1.4770471191406256 0.31272727272727274 1.4656834827769891 0.29727272727272724 Q 1.4543198464133529 0.2818181818181818 1.4543198464133529 0.26227272727272727 Q 1.4543198464133529 0.2309090909090909 1.4797743918678983 0.21227272727272728 Q 1.5052289373224437 0.19363636363636363 1.5461380282315347 0.18772727272727271 L 1.6138653009588073 0.17818181818181816 L 1.6138653009588073 0.16499999999999998 Q 1.6138653009588073 0.1431818181818182 1.6013653009588074 0.1309090909090909 Q 1.5888653009588074 0.11863636363636362 1.5606834827769893 0.11863636363636362 Q 1.5406834827769893 0.11863636363636362 1.5279562100497164 0.1268181818181818 Q 1.5152289373224437 0.13499999999999998 1.5102289373224438 0.1477272727272727 Q 1.507501664595171 0.15454545454545454 1.5006834827769893 0.15454545454545454 L 1.4802289373224438 0.15454545454545454 Q 1.4752289373224439 0.15454545454545454 1.4727289373224437 0.15159090909090908 Q 1.4702289373224438 0.14863636363636362 1.4702289373224438 0.14454545454545453 Q 1.4702289373224438 0.13772727272727273 1.4754562100497164 0.12772727272727272 Q 1.4806834827769892 0.11772727272727271 1.4915925736860802 0.10818181818181818 Q 1.502501664595171 0.09863636363636363 1.5195471191406256 0.09204545454545454 Q 1.5365925736860802 0.08545454545454545 1.5611380282315346 0.08545454545454545 Q 1.588410755504262 0.08545454545454545 1.6070471191406255 0.0925 Q 1.6256834827769893 0.09954545454545455 1.6363653009588073 0.11136363636363636 Q 1.6470471191406255 0.12318181818181817 1.6518198464133529 0.13818181818181818 Q 1.65659257368608 0.15318181818181817 1.65659257368608 0.16863636363636364 L 1.65659257368608 0.3159090909090909 Q 1.65659257368608 0.32045454545454544 1.6536380282315346 0.3234090909090909 Q 1.6506834827769892 0.32636363636363636 1.6461380282315348 0.32636363636363636 L 1.6252289373224438 0.32636363636363636 Q 1.6202289373224437 0.32636363636363636 1.617501664595171 0.3234090909090909 Q 1.6147743918678983 0.32045454545454544 1.6147743918678983 0.3159090909090909 L 1.6147743918678983 0.2963636363636364 Q 1.6088653009588074 0.30454545454545456 1.5988653009588074 0.3125 Q 1.5888653009588074 0.32045454545454544 1.5738653009588073 0.3256818181818182 Q 1.5588653009588074 0.3309090909090909 1.5370471191406256 0.3309090909090909 M 1.5465925736860802 0.2968181818181818 Q 1.5652289373224437 0.2968181818181818 1.5806834827769891 0.2888636363636364 Q 1.5961380282315347 0.2809090909090909 1.605001664595171 0.2640909090909091 Q 1.6138653009588073 0.24727272727272726 1.6138653009588073 0.2218181818181818 L 1.6138653009588073 0.20909090909090908 L 1.5611380282315346 0.2168181818181818 Q 1.5288653009588073 0.22136363636363637 1.512501664595171 0.23204545454545455 Q 1.4961380282315346 0.24272727272727274 1.4961380282315346 0.2590909090909091 Q 1.4961380282315346 0.2718181818181818 1.5036380282315347 0.2802272727272727 Q 1.5111380282315348 0.28863636363636364 1.5227289373224437 0.2927272727272727 Q 1.534319846413353 0.2968181818181818 1.5465925736860802 0.2968181818181818 M 1.7375025523792618 0.32636363636363636 Q 1.7329570978338074 0.32636363636363636 1.730002552379262 0.3234090909090909 Q 1.7270480069247165 0.32045454545454544 1.7270480069247165 0.3159090909090909 L 1.7270480069247165 0.014090909090909098 Q 1.7270480069247165 0.009545454545454524 1.730002552379262 0.006590909090909092 Q 1.7329570978338074 0.0036363636363636043 1.7375025523792618 0.0036363636363636043 L 1.7588661887428982 0.0036363636363636043 Q 1.7638661887428981 0.0036363636363636043 1.766593461470171 0.006590909090909092 Q 1.7693207341974437 0.009545454545454524 1.7693207341974437 0.014090909090909098 L 1.7693207341974437 0.3159090909090909 Q 1.7693207341974437 0.32045454545454544 1.766593461470171 0.3234090909090909 Q 1.7638661887428981 0.32636363636363636 1.7588661887428982 0.32636363636363636 L 1.7375025523792618 0.32636363636363636 M 1.936130260120739 0.3309090909090909 Q 1.8888575328480117 0.3309090909090909 1.8611302601207391 0.30204545454545456 Q 1.8334029873934663 0.2731818181818182 1.8306757146661936 0.22318181818181818 Q 1.8302211692116481 0.21727272727272728 1.8302211692116481 0.20795454545454545 Q 1.8302211692116481 0.19863636363636364 1.8306757146661936 0.19272727272727272 Q 1.8324938964843756 0.16045454545454543 1.8456757146661937 0.13613636363636364 Q 1.858857532848012 0.11181818181818182 1.8818120783025574 0.09863636363636363 Q 1.9047666237571028 0.08545454545454545 1.9356757146661936 0.08545454545454545 Q 1.9702211692116482 0.08545454545454545 1.9936302601207392 0.1 Q 2.01703935102983 0.11454545454545453 2.0293120783025573 0.14136363636363636 Q 2.0415848055752845 0.16818181818181818 2.0415848055752845 0.2040909090909091 L 2.0415848055752845 0.2118181818181818 Q 2.0415848055752845 0.2168181818181818 2.038630260120739 0.21954545454545454 Q 2.0356757146661937 0.22227272727272726 2.0311302601207393 0.22227272727272726 L 1.8738575328480118 0.22227272727272726 Q 1.8738575328480118 0.22272727272727272 1.8738575328480118 0.22409090909090906 Q 1.8738575328480118 0.22545454545454546 1.8738575328480118 0.22636363636363635 Q 1.8747666237571028 0.245 1.8820393510298299 0.2611363636363636 Q 1.8893120783025572 0.2772727272727273 1.9031757146661936 0.28727272727272724 Q 1.91703935102983 0.29727272727272724 1.9356757146661936 0.29727272727272724 Q 1.95203935102983 0.29727272727272724 1.962948441938921 0.29227272727272724 Q 1.973857532848012 0.28727272727272724 1.9806757146661935 0.28113636363636363 Q 1.9874938964843754 0.275 1.9897666237571028 0.27136363636363636 Q 1.9938575328480117 0.2659090909090909 1.9961302601207391 0.26477272727272727 Q 1.9984029873934663 0.2636363636363636 2.0034029873934665 0.2636363636363636 L 2.0256757146661934 0.2636363636363636 Q 2.029766623757103 0.2636363636363636 2.0327211692116482 0.2661363636363636 Q 2.0356757146661937 0.2686363636363636 2.035221169211648 0.2731818181818182 Q 2.0347666237571027 0.27999999999999997 2.027948441938921 0.2897727272727273 Q 2.021130260120739 0.29954545454545456 2.0086302601207393 0.3090909090909091 Q 1.9961302601207391 0.3186363636363636 1.977721169211648 0.32477272727272727 Q 1.9593120783025573 0.3309090909090909 1.936130260120739 0.3309090909090909 M 1.8738575328480118 0.1909090909090909 L 1.9984029873934663 0.1909090909090909 L 1.9984029873934663 0.18954545454545454 Q 1.9984029873934663 0.16909090909090907 1.9909029873934663 0.15318181818181817 Q 1.9834029873934664 0.13727272727272727 1.9693120783025573 0.12795454545454546 Q 1.9552211692116481 0.11863636363636362 1.9356757146661936 0.11863636363636362 Q 1.916130260120739 0.11863636363636362 1.9022666237571026 0.12795454545454546 Q 1.8884029873934665 0.13727272727272727 1.8811302601207391 0.15318181818181817 Q 1.8738575328480118 0.16909090909090907 1.8738575328480118 0.18954545454545454 L 1.8738575328480118 0.1909090909090909" fill="#4e888f" fill-rule="nonzero"></path></g><g clip-path="url(#SvgjsClipPath1001)"><g clip-path="url(#SvgjsClipPath1000f4a7edc9-a39d-4fd1-9582-49271da0b12c)"><path d=" M 1.0409391736882525 -0.9984278275524567 L 0.6771572734964939 -1.2084328704843903 L 0.6771572734964939 -1.114935435421075 L 1.0409391736882525 -0.9048772266554861 Z M 1.0409391736882525 -0.8351342860686228 L 0.6771572734964939 -1.045160595334019 L 0.6771572734964939 -0.9516525271039724 L 1.0409391736882525 -0.7416368510053055 Z M 1.0409391736882525 -0.6718939104184423 L 0.6771572734964939 -0.8819095865171072 L 0.6771572734964939 -0.7884015182870585 L 1.0409391736882525 -0.5783645758549345 Z M 1.0409391736882525 -0.5086322684348006 L 0.6771572734964939 -0.7186266782000046 L 0.6771572734964939 -0.6251292431366893 L 1.0409391736882525 -0.4150816675378337 Z M 0.6771572734964939 -1.2782183437381776 L 1.0409391736882525 -1.0682026676395127 L 1.0409391736882525 -1.161700102702828 L 0.6771572734964939 -1.3717689446351464 Z M -0.6570924878756151 -0.9108424331914269 L -1.0208743880673739 -0.7008267570927618 L -1.0208743880673739 -0.25182002555419025 L -1.3195387752001464 -0.25182002555419025 L -1.3195387752001464 -0.18753189950018978 L 1.3195387752001313 -0.18753189950018978 L 1.3195387752001313 -0.25182002555419025 L 1.0409498068549876 -0.25182002555419025 L 1.0409498068549876 -0.34539189278462024 L 0.6771679066632215 -0.5554075688832851 L 0.6771679066632215 -0.4619526664868916 L 1.0409498068549876 -0.25184129188765114 L 0.9201357664604206 -0.25184129188765114 L 0.6771891729966844 -0.39212466056618256 L 0.6771891729966844 -0.298669758169789 L 0.7581820039846652 -0.25188382455457337 L 0.5961963420087113 -0.25188382455457337 L 0.5961963420087113 -1.6318881023690148 L 0.5152035110207307 -1.6786208701505774 L 0.5152035110207307 -0.2517881260539978 L 0.45479649082345097 -0.2517881260539978 L 0.45479649082345097 -1.7134870238606432 L 0.37384619250239615 -1.760272957475859 L 0.37384619250239615 -0.25179875922072936 L 0.31340727280492575 -0.25179875922072936 L 0.31340727280492575 -2.5871611682911424 L -0.05034272788664973 -2.3771454921924793 L -0.05034272788664973 -2.0931017093144666 L 0.23249950715078915 -2.256395250798299 L 0.23249950715078915 -0.25173496022034625 L 0.1515066761628161 -0.25173496022034625 L 0.1515066761628161 -2.1012892476971268 L -0.21228585719568516 -1.8912735715984619 L -0.21228585719568516 -0.2517881260539978 L -0.29327868818365843 -0.2517881260539978 L -0.29327868818365843 -1.493954663537975 L -0.6570180557085062 -1.283896454772388 L -0.6570180557085062 -1.001330682069946 L -0.37423961967144836 -0.8380796732530358 L -0.37423961967144836 -0.25178812605400136 L -0.6570180557085062 -0.25178812605400136 Z" fill="#4e888f" transform="matrix(1,0,0,1,0,0)" fill-rule="evenodd"></path></g></g></g><defs><clipPath id="SvgjsClipPath1001"><path d=" M -1.3195387752001388 -2.5872143341247957 h 2.6390775504002777 v 2.3997143341247957 h -2.6390775504002777 Z"></path></clipPath><clipPath id="SvgjsClipPath1000f4a7edc9-a39d-4fd1-9582-49271da0b12c"><path d=" M -1.3195387752001388 -2.5872143341247957 L 1.3195387752001388 -2.5872143341247957 L 1.3195387752001388 -0.1875 L -1.3195387752001388 -0.1875 Z"></path></clipPath></defs></svg>